<svg
  class="shopping-cart-icon"
  xmlns="http://www.w3.org/2000/svg"
  viewBox="0 0 34.17 29.29"
  aria-hidden="true"
>
  <defs>
    <style>
      .fc {
        fill: #eb6100;
      }
    </style>
  </defs>
  
  <path
    <path class="fc" 
    d="M5.47.09c.14.05.27.12.45.27.66.53,1.6,1.83,2.4,2.02,8.05.19,16.13.03,24.19.08,1.16.19,1.8,1.44,1.64,2.54-.95,3.87-1.77,7.78-2.71,11.66-.38,1.57-.6,3.65-2.23,4.32-.16.06-.42.15-.62.15H9.35c-1.2-.15-2.04-1.08-2.29-2.24-.59-4.28-1.14-8.56-1.75-12.84-.06-.43-.06-1.3-.24-1.66-.1-.2-.42-.4-.63-.43-.92-.13-2.12.09-3.07,0C.33,3.87.03,2.52.04,1.91c0-.19.05-.52.16-.76l.01-.03C.52.43,1.22,0,1.97,0h3.12c.14,0,.26.05.37.09ZM11.66,8.17c-1,.19-1.07,1.49-.07,1.72h15.38c1.08-.26.86-1.68-.23-1.73h-15.08ZM13.06,13.7c-.96.16-.97,1.55-.01,1.72h13.03c1.04-.25.9-1.67-.17-1.73h-12.84Z"
  />
  <circle fill="currentColor" cx="10.11" cy="26.67" r="2.62"/>
  <circle fill="currentColor" cx="27.14" cy="26.67" r="2.62"/>
</svg>
