<svg id="shopping cart" xmlns="http://www.w3.org/2000/svg" version="1.1" viewBox="0 0 34.94 29.86">
  <!-- Generator: Adobe Illustrator 29.6.1, SVG Export Plug-In . SVG Version: 2.1.1 Build 9)  -->
  <defs>
    <style>
      .st0 {
        fill: #eb6100;
      }
    </style>
  </defs>
  <path class="st0" d="M5.85.38c.14.05.27.12.45.27.66.53,1.6,1.83,2.4,2.02,8.05.19,16.13.03,24.19.08,1.16.19,1.8,1.44,1.64,2.54-.95,3.87-1.77,7.78-2.71,11.66-.38,1.57-.6,3.65-2.23,4.32-.16.06-.42.15-.62.15H9.73c-1.2-.15-2.04-1.08-2.29-2.24-.59-4.28-1.14-8.56-1.75-12.84-.06-.43-.06-1.3-.24-1.66-.1-.2-.42-.4-.63-.43-.92-.13-2.12.09-3.07,0-1.04-.09-1.34-1.44-1.33-2.05,0-.19.05-.52.16-.76v-.03C.9.72,1.6.29,2.35.29h3.12c.14,0,.26.05.37.09h0ZM12.04,8.46c-1,.19-1.07,1.49-.07,1.72h15.38c1.08-.26.86-1.68-.23-1.73h-15.08ZM13.44,13.99c-.96.16-.97,1.55-.01,1.72h13.03c1.04-.25.9-1.67-.17-1.73h-12.85,0Z"/>
  <circle class="st0" cx="10.72" cy="26.73" r="2.85"/>
  <circle class="st0" cx="27.41" cy="26.73" r="2.85"/>
</svg>
