<?xml version="1.0" encoding="UTF-8"?>
<svg id="_圖層_1" data-name="圖層_1" xmlns="http://www.w3.org/2000/svg" version="1.1" viewBox="0 0 595.28 841.89">
  <!-- Generator: Adobe Illustrator 29.6.1, SVG Export Plug-In . SVG Version: 2.1.1 Build 9)  -->
  <defs>
    <style>
      .st0 { fill: currentColor; }
      }
    </style>
  </defs>
  <path class="st0" d="M400.52,316.6c.6.21,1.12.52,1.88,1.14,2.77,2.25,6.77,7.71,10.13,8.51,33.98.79,68.08.13,102.11.33,4.88.79,7.62,6.07,6.93,10.73-4,16.36-7.49,32.85-11.43,49.22-1.59,6.62-2.54,15.41-9.4,18.24-.66.27-1.77.65-2.63.65s-3.1,0-3.1,0h-78.11c-5.07-.65-8.61-4.58-9.68-9.44-2.51-18.06-4.82-36.14-7.4-54.19-.26-1.82-.27-5.5-1.03-7-.42-.83-1.77-1.67-2.68-1.8-3.9-.55-8.94.39-12.97-.01-4.34-.43-5.59-6.1-5.54-8.68.02-.82.22-2.21.66-3.22.02-.04.04-.08.05-.12,1.3-2.91,4.24-4.74,7.42-4.74h13.18c.57,0,1.08.22,1.58.39ZM426.65,350.72c-4.21.81-4.51,6.31-.3,7.26h64.92c4.58-1.1,3.65-7.1-.95-7.32l-63.67.05ZM432.55,374.08c-4.05.68-4.1,6.54-.06,7.26h55.01c4.41-1.05,3.81-7.07-.72-7.32l-54.23.05Z"/>
  <circle class="st0" cx="420.11" cy="428.84" r="11.05"/>
  <circle class="st0" cx="492" cy="428.84" r="11.05"/>
</svg>